{"title":"DURAN DURAN - GREATEST - THE DVD  x264 DVDRip -Tomten","uid":10830751,"size":1427332974,"categoryP":"video","categoryS":"music_videos","magnet":"?xt=urn:btih:6a451a9ddf349c6a245a4a6db75e40cb87b1dfd6&amp;dn=DURAN+DURAN+-+GREATEST+-+THE+DVD++x264+DVDRip+-Tomten&amp;tr=udp%3A%2F%2Ftracker.openbittorrent.com%3A80&amp;tr=udp%3A%2F%2Fopen.demonii.com%3A1337&amp;tr=udp%3A%2F%2Ftracker.coppersurfer.tk%3A6969&amp;tr=udp%3A%2F%2Fexodus.desync.com%3A6969","seeders":1,"leechers":0,"uploader":"torrenttomten","files":-1,"time":1408621194,"description":"\tDuran Duran - Greatest - The DVD\n\t\n\tFormat: MPEG-4 AVC\n\tVideo : 720x576 / 25 fps \n\tAudio : AAC VBR quality 100\n\t\n\tSource: &quot;DURAN DURAN - GREATEST - THE DVD&quot; 2xDVD9\n\t\n\t\n\tTracks:\n\t-------------------\n\t01. A View To A Kill\n\t02. All She Wants Is\n\t03. Burning The Ground\n\t04. Come Undone  (Uncensored version)\n\t05. Electric Barbarella\n\t06. Girls on Film (shortMTV day version)\n\t07. Girls on Film (uncensored night version)\n\t08. Hungry Like the Wolf\n\t09. I Don't Want Your Love\n\t10. Is There Something I Should Know\n\t11. New Moon on Monday\n\t12. Notorious\n\t13. Ordinary World\n\t14. Planet Earth (Rum Runner club version)\n\t15. Planet Earth\n\t16. Rio\n\t17. Save a Prayer\n\t18. Serious\n\t19. Skin Trade\n\t20. The Chauffeur\n\t21. The Reflex\n\t22. Union of the Snake\n\t23. Wild Boys (7 Edit)\n\t24. Wild Boys (long Arena version)\n\t\n\t\n\tMediaInfo:\n\t-------------------\n\tGeneral\n\tFormat                                   : MPEG-4\n\tFormat profile                           : Base Media\n\tCodec ID                                 : isom\n\tFile size                                : 94.0 MiB\n\tDuration                                 : 6mn 5s\n\tOverall bit rate mode                    : Variable\n\tOverall bit rate                         : 2 156 Kbps\n\tEncoded date                             : UTC 2014-08-21 08:35:32\n\tTagged date                              : UTC 2014-08-21 08:35:32\n\n\tVideo\n\tID                                       : 1\n\tFormat                                   : AVC\n\tFormat/Info                              : Advanced Video Codec\n\tFormat profile                           : &lt;a class=&quot;__cf_email__&quot; href=&quot;/cdn-cgi/l/email-protection&quot; data-cfemail=&quot;4d05242a250d0179637c&quot;&gt;[email&amp;#160;protected]&lt;/a&gt;&lt;script cf-hash='f9e31' type=&quot;text/javascript&quot;&gt;\n/* &lt;![CDATA[ */!function(){try{var t=&quot;currentScript&quot;in document?document.currentScript:function(){for(var t=document.getElementsByTagName(&quot;script&quot;),e=t.length;e--;)if(t[e].getAttribute(&quot;cf-hash&quot;))return t[e]}();if(t&amp;&amp;t.previousSibling){var e,r,n,i,c=t.previousSibling,a=c.getAttribute(&quot;data-cfemail&quot;);if(a){for(e=&quot;&quot;,r=parseInt(a.substr(0,2),16),n=2;a.length-n;n+=2)i=parseInt(a.substr(n,2),16)^r,e+=String.fromCharCode(i);e=document.createTextNode(e),c.parentNode.replaceChild(e,c)}}}catch(u){}}();/* ]]&gt; */&lt;/script&gt;\n\tFormat settings, CABAC                   : Yes\n\tFormat settings, ReFrames                : 4 frames\n\tCodec ID                                 : avc1\n\tCodec ID/Info                            : Advanced Video Coding\n\tDuration                                 : 6mn 5s\n\tBit rate                                 : 1 900 Kbps\n\tMaximum bit rate                         : 4 440 Kbps\n\tWidth                                    : 720 pixels\n\tHeight                                   : 576 pixels\n\tDisplay aspect ratio                     : 4:3\n\tOriginal display aspect ratio            : 4:3\n\tFrame rate mode                          : Constant\n\tFrame rate                               : 25.000 fps\n\tStandard                                 : PAL\n\tColor space                              : YUV\n\tChroma subsampling                       : 4:2:0\n\tBit depth                                : 8 bits\n\tScan type                                : Progressive\n\tBits/(Pixel*Frame)                       : 0.183\n\tStream size                              : 82.8 MiB (88%)\n\tWriting library                          : x264 core 132 r2309 3b1f1f7\n\tEncoding settings                        : opencl=1 / cabac=1 / ref=3 / deblock=1:0:1 / analyse=0x3:0x113 / me=hex / subme=7 / psy=1 / psy_rd=1.00:0.00 / mixed_ref=1 / me_range=16 / chroma_me=1 / trellis=1 / 8x8dct=1 / cqm=0 / deadzone=21,11 / fast_pskip=1 / chroma_qp_offset=-2 / threads=12 / lookahead_threads=2 / sliced_threads=0 / nr=0 / decimate=1 / interlaced=0 / bluray_compat=0 / constrained_intra=0 / bframes=3 / b_pyramid=2 / b_adapt=1 / b_bias=0 / direct=1 / weightb=1 / open_gop=0 / weightp=2 / keyint=250 / keyint_min=25 / scenecut=40 / intra_refresh=0 / rc_lookahead=40 / rc=crf / mbtree=1 / crf=23.0 / qcomp=0.60 / qpmin=0 / qpmax=69 / qpstep=4 / ip_ratio=1.40 / aq=1:1.00\n\tEncoded date                             : UTC 2014-08-21 08:35:32\n\tTagged date                              : UTC 2014-08-21 08:35:32\n\n\tAudio\n\tID                                       : 2\n\tFormat                                   : AAC\n\tFormat/Info                              : Advanced Audio Codec\n\tFormat profile                           : LC\n\tCodec ID                                 : 40\n\tDuration                                 : 6mn 5s\n\tBit rate mode                            : Variable\n\tBit rate                                 : 252 Kbps\n\tMaximum bit rate                         : 274 Kbps\n\tChannel(s)                               : 2 channels\n\tChannel positions                        : Front: L R\n\tSampling rate                            : 48.0 KHz\n\tCompression mode                         : Lossy\n\tStream size                              : 11.0 MiB (12%)\n\tEncoded date                             : UTC 2014-08-21 08:34:05\n\tTagged date                              : UTC 2014-08-21 08:35:32\n\n\n\t\n\t\n\t","torrent":{"xt":"urn:btih:6a451a9ddf349c6a245a4a6db75e40cb87b1dfd6","amp;dn":"DURAN+DURAN+-+GREATEST+-+THE+DVD++x264+DVDRip+-Tomten","amp;tr":["udp%3A%2F%2Ftracker.openbittorrent.com%3A80","udp%3A%2F%2Fopen.demonii.com%3A1337","udp%3A%2F%2Ftracker.coppersurfer.tk%3A6969","udp%3A%2F%2Fexodus.desync.com%3A6969"],"infoHash":"6a451a9ddf349c6a245a4a6db75e40cb87b1dfd6","infoHashBuffer":{"type":"Buffer","data":[106,69,26,157,223,52,156,106,36,90,74,109,183,94,64,203,135,177,223,214]},"announce":[],"urlList":[]}}